<?xml version="1.0" encoding="utf-8"?>
<!-- Generator: Adobe Illustrator 26.5.0, SVG Export Plug-In . SVG Version: 6.00 Build 0)  -->
<svg version="1.1" id="Capa_1" xmlns="http://www.w3.org/2000/svg" xmlns:xlink="http://www.w3.org/1999/xlink" x="0px" y="0px"
	 viewBox="0 0 366 67" style="enable-background:new 0 0 366 67;" xml:space="preserve">
<style type="text/css">
	.st0{fill:#3F96B4;}
	.st1{fill:#FFD040;}
	.st2{fill:#212A5B;}
	.st3{opacity:0.8;fill:#001E61;}
	.st4{fill:#006098;}
	.st5{fill:#00B2E3;}
	.st6{fill:#0065A1;}
</style>
<g>
	<g>
		<g>
			<path class="st1" d="M267.5,14.9l0.8,0.6l-0.5,0.6c0.3,0.4,0.4,0.8,0.4,1.2c0,0.5-0.2,1.3-0.9,1.6c0.7,0.3,0.9,0.9,0.9,1.4
				c0,1.2-0.9,1.9-2.1,1.9c-1.2,0-2.1-0.7-2.1-1.9h1c0,0.5,0.5,0.9,1.1,0.9c0.6,0,1.1-0.3,1.1-0.9c0-0.6-0.5-0.8-1.1-0.8
				c-1.3,0-2.1-0.8-2.1-2.1c0-1.3,1-2.1,2.1-2.1c0.3,0,0.7,0,1,0.2L267.5,14.9z M265.1,17.3c0,0.7,0.5,1.2,1.1,1.2
				c0.6,0,1.1-0.4,1.1-1.2c0-0.7-0.5-1.2-1.1-1.2C265.6,16.1,265.1,16.6,265.1,17.3z"/>
			<path class="st1" d="M273.1,17.4c0,1.2-0.8,2.2-2.2,2.2c-1.4,0-2.2-1-2.2-2.2c0-1.2,0.8-2.2,2.2-2.2
				C272.2,15.2,273.1,16.2,273.1,17.4z M269.8,17.4c0,0.6,0.4,1.2,1.1,1.2c0.8,0,1.1-0.6,1.1-1.2c0-0.6-0.4-1.2-1.1-1.2
				C270.1,16.2,269.8,16.8,269.8,17.4z"/>
			<path class="st1" d="M274.8,13.6v2.3c0.2-0.4,0.9-0.7,1.4-0.7c1.2,0,2.1,0.8,2.1,2.2c0,1.4-0.9,2.2-2.2,2.2c-0.5,0-1-0.2-1.4-0.7
				l-0.1,0.6h-1v-6H274.8z M274.9,17.4c0,0.8,0.6,1.2,1.2,1.2c0.7,0,1.2-0.5,1.2-1.2c0-0.8-0.5-1.2-1.2-1.2
				C275.4,16.2,274.9,16.7,274.9,17.4z"/>
			<path class="st1" d="M280.2,14.1c0,0.8-1.2,0.8-1.2,0S280.2,13.3,280.2,14.1z M279,15.3v4.2h1v-4.2H279z"/>
			<path class="st1" d="M281.9,17.8c0.1,0.5,0.5,0.9,1.3,0.9c0.4,0,0.9-0.1,1.1-0.4l0.7,0.7c-0.4,0.5-1.2,0.7-1.8,0.7
				c-1.4,0-2.3-0.9-2.3-2.2c0-1.3,0.9-2.2,2.2-2.2c1.4,0,2.3,0.9,2.1,2.6H281.9z M284.2,16.9c-0.1-0.5-0.5-0.8-1.1-0.8
				c-0.6,0-1,0.3-1.2,0.8H284.2z"/>
			<path class="st1" d="M286.9,15.3l0.1,0.5c0.3-0.5,0.8-0.6,1.2-0.6c0.4,0,0.9,0.2,1.1,0.4l-0.5,0.9c-0.2-0.2-0.4-0.3-0.8-0.3
				c-0.5,0-1,0.3-1,1.1v2.2h-1v-4.2H286.9z"/>
			<path class="st1" d="M292.7,19.5v-2.2c0-0.6-0.3-1.1-1-1.1c-0.6,0-1.1,0.5-1.1,1.2v2.1h-1v-4.2h0.9l0.1,0.6
				c0.4-0.4,0.9-0.6,1.4-0.6c1,0,1.8,0.7,1.8,2.1v2.2H292.7z"/>
			<path class="st1" d="M298.7,17.4c0,1.2-0.8,2.2-2.2,2.2c-1.4,0-2.2-1-2.2-2.2c0-1.2,0.8-2.2,2.2-2.2
				C297.9,15.2,298.7,16.2,298.7,17.4z M295.4,17.4c0,0.6,0.4,1.2,1.1,1.2c0.8,0,1.1-0.6,1.1-1.2c0-0.6-0.4-1.2-1.1-1.2
				C295.8,16.2,295.4,16.8,295.4,17.4z"/>
		</g>
		<g>
			<g>
				<path class="st0" d="M298.4,21.1h-9.9c-0.2,0-0.3,0.1-0.3,0.3v1.2c0,0.2,0.1,0.3,0.3,0.3c2.3,0.2,2.7,1.1,2.7,3.1v15.5
					c-1.4,1.6-2.4,2.1-3.7,2.1c-1.2,0-2.5-0.4-2.5-3.4V21.4c0-0.2-0.1-0.3-0.3-0.3h-12.9c-0.2,0-0.3,0.1-0.3,0.3V22
					c0,0.1,0.1,0.3,0.2,0.3c1.1,0.3,3.9,1.1,5.3,4.2c0,0,0.6,1.2,0.6,3c0,0,0,0,0,0.1V40c0,4.7,2.6,7.5,6.9,7.5
					c2.6,0,4.5-0.8,6.9-2.9v2.5c0,0.1,0,0.2,0.1,0.2c0.1,0.1,0.2,0.1,0.3,0.1l6.8-1c0.2,0,0.3-0.2,0.3-0.3V21.4
					C298.7,21.3,298.6,21.1,298.4,21.1z"/>
				<path class="st0" d="M313.6,22.8c-2.3,0-4,0.7-5.7,2.3V12c0-0.2-0.1-0.3-0.3-0.3h-9.6c-0.2,0-0.3,0.1-0.3,0.3v1.2
					c0,0.2,0.1,0.3,0.3,0.3c2.1,0.4,2.5,0.8,2.5,2.6v30.1c0,0.1,0.1,0.2,0.1,0.3l1.6,1c0.1,0.1,0.3,0.1,0.4,0l2.7-2.6
					c2.2,2,4,2.7,6.5,2.7c6.8,0,11.5-5.3,11.5-12.8C323.2,27.7,319.2,22.8,313.6,22.8z M315.3,35.6c0,8.7-2.5,9.7-4.3,9.7
					c-1.9,0-3.1-1.4-3.1-3.6V28.8c0.8-2,1.7-2.7,3.1-2.7C313.8,26.1,315.3,29.3,315.3,35.6z"/>
				<path class="st0" d="M361,41.5c0-0.1-0.1-0.1-0.2-0.2l-1.2-0.5c-0.2-0.1-0.3,0-0.4,0.1c-1.1,2-1.8,2.5-2.5,2.5
					c-0.8,0-1.6-0.3-1.6-2.7V19.3h4.4c0.2,0,0.3-0.1,0.3-0.3v-2.2c0-0.2-0.1-0.3-0.3-0.3H355V12c0-0.2-0.1-0.3-0.3-0.3h-1.2
					c-0.1,0-0.2,0-0.2,0.1c-2.9,3.4-3,3.5-6.4,4.3c-0.5,0.1-1.1,0.3-1.7,0.4c-0.1,0-0.2,0.2-0.2,0.3V19c0,0.2,0.1,0.3,0.3,0.3h2.3
					v22.5c0,3.5,2.2,5.6,5.9,5.6c3.4,0,5.5-1.6,7.6-5.8C361,41.7,361,41.6,361,41.5z"/>
			</g>
			<path class="st0" d="M345.6,21.1h-9.9c-0.2,0-0.3,0.1-0.3,0.3v1.2c0,0.2,0.1,0.3,0.3,0.3c2.4,0.2,2.7,0.8,2.7,2.8v15.8
				c-1.4,1.6-2.4,2.1-3.7,2.1c-1.2,0-2.5-0.4-2.5-3.4V21.4c0-0.2-0.1-0.3-0.3-0.3h-13.4c-0.2,0-0.3,0.1-0.3,0.3V22
				c0,0.1,0.1,0.3,0.2,0.3c0,0,0,0,0,0v0c0,0,0.4,0.1,0.7,0.3c0,0,0,0,0,0c0,0,0.1,0.1,0.1,0.1l0,0c5.5,3.8,5.4,11,5.4,11l0,0V40
				c0,4.7,2.6,7.5,6.9,7.5c2.6,0,4.5-0.8,6.9-2.9v2.5c0,0.1,0,0.2,0.1,0.2c0.1,0.1,0.2,0.1,0.2,0.1l6.8-0.8c0.2,0,0.3-0.2,0.3-0.3
				v-25C345.9,21.2,345.8,21.1,345.6,21.1z"/>
			<line class="st0" x1="275.9" y1="43" x2="275.9" y2="30"/>
			<g>
				<path class="st0" d="M251.5,24.3c0.2,0.1,0.4,0.2,0.6,0.4C251.9,24.5,251.7,24.4,251.5,24.3z"/>
				<path class="st0" d="M252.9,25.7c0.2,0.4,0.4,0.8,0.4,1.3C253.3,26.5,253.1,26.1,252.9,25.7z"/>
				<path class="st0" d="M251.9,40.4c-0.1-0.1-0.1-0.1-0.2-0.1c-0.1,0-0.2,0-0.2,0.1c-1.9,2.1-2.9,2.9-5,2.9
					c-4.2,0-6.3-3.8-6.3-11.4c0-5.3,1.6-8.7,4.1-8.7c1.1,0,1.5,0.3,1.7,1c0.2,0.7,0.2,1.6,0.2,2.7c0,2.9,1.3,4.4,3.3,4.4
					c2.5,0,4-1.5,4.1-3.8c0-1.9-0.8-3.4-2.3-4.4c0,0,0,0,0.1,0c-1.5-1.3-3.8-2.1-6.5-2.1c-7.5,0-12.9,5.7-12.9,13.6
					c0,7.7,4.6,12.8,11.4,12.8c4.6,0,7-1.6,9.6-5.7c0.1-0.1,0.1-0.3,0-0.4L251.9,40.4z"/>
			</g>
			<g>
				<path class="st0" d="M275.9,42.9V30.5c0-4.3-2.6-7-6.7-7c-2.7,0-4.8,1-7,3.3V12c0-0.2-0.1-0.3-0.3-0.3h-9.5
					c-0.2,0-0.3,0.1-0.3,0.3v1.2c0,0.2,0.1,0.3,0.3,0.3c2.2,0.4,2.4,0.5,2.4,2.7v25.2c-0.1,2.5-2.6,4.6-2.7,4.6c0,0,0,0,0,0
					c0,0,0,0,0,0c0,0,0,0,0,0c0,0,0,0,0,0c0,0,0,0,0,0.1c0,0,0,0,0,0c0,0,0,0,0,0.1c0,0,0,0,0,0v0.9c0,0.2,0.1,0.3,0.3,0.3h8.9h0.7
					c0,0,0.5-0.1,0.5-0.7v-6.3l0-10.6c0-0.1,0.3-0.5,0.7-1c1-1,2.2-1.6,3.2-1.6c1.5,0,2.2,0.7,2.2,4.5v9.5c-0.1,2.5-2.6,4.6-2.7,4.6
					c0,0,0,0,0,0c0,0,0,0,0,0c0,0,0,0,0,0c0,0,0,0,0,0c0,0,0,0,0,0.1c0,0,0,0,0,0c0,0,0,0,0,0.1c0,0,0,0,0,0v0.9
					c0,0.2,0.1,0.3,0.3,0.3h0.6h4.3h3.9h0.7c0,0,0.6-0.1,0.6-0.7v-0.9v-2.5C275.9,43.2,275.9,43,275.9,42.9z"/>
			</g>
		</g>
		<path class="st2" d="M227.5,20.6c-0.4,0.2-0.8,0.3-1.3,0.2c-1.6-0.1-2.8-1.4-2.7-3c0-0.4,0.6-9.4,9.5-14.4
			c1.4-0.8,3.1-0.3,3.9,1.1c0.8,1.4,0.3,3.1-1.1,3.9c-6.2,3.5-6.6,9.7-6.6,9.8C229.1,19.2,228.4,20.2,227.5,20.6"/>
		<path class="st3" d="M216.5,25.6c-1.2,0.5-2.6,0.2-3.4-0.9c-0.3-0.3-6.2-8.3-1.8-16.7c0.7-1.4,2.4-1.9,3.8-1.2
			c1.4,0.7,1.9,2.4,1.2,3.8c-2.8,5.2,1.1,10.4,1.2,10.7c0.9,1.2,0.7,3-0.5,4C216.8,25.4,216.7,25.5,216.5,25.6"/>
		<path class="st4" d="M212.3,36.5c-0.5,0.2-1.1,0.3-1.6,0.2c-0.4-0.1-9.5-1.7-13.4-10.4c-0.6-1.4,0-3.1,1.4-3.7c0,0,0,0,0,0
			c1.4-0.6,3.1,0,3.7,1.4c2.7,5.9,9,7.1,9.2,7.2c1.5,0.3,2.6,1.8,2.3,3.3C213.8,35.3,213.1,36.1,212.3,36.5"/>
		<path class="st0" d="M214.2,49.7c-3.2,1.4-8.1,2.6-13.7-0.1c-1.4-0.7-2-2.4-1.3-3.8c0.7-1.4,2.4-2,3.8-1.3
			c6.1,2.9,11.1-1.2,11.3-1.4c1.2-1,3-0.9,4,0.3c1,1.2,0.9,3-0.3,4C217.8,47.5,216.4,48.7,214.2,49.7"/>
		<path class="st5" d="M220.3,63.7c-1.4,0.6-3,0-3.7-1.3c-0.7-1.4-0.1-3.1,1.3-3.8c6.3-3.1,7.2-9.2,7.2-9.3c0.2-1.6,1.6-2.7,3.2-2.5
			c1.6,0.2,2.7,1.6,2.5,3.2C230.6,50.4,229.4,59.3,220.3,63.7C220.3,63.7,220.3,63.7,220.3,63.7"/>
		<path class="st1" d="M227.7,32.7c-0.5-1.1-1.6-1.8-2.8-1.8c-0.5,0-0.9,0.1-1.3,0.3c-1.5,0.7-2.2,2.6-1.5,4.1
			c0.5,1.1,1.6,1.8,2.8,1.8c0.5,0,0.9-0.1,1.3-0.3C227.8,36.1,228.4,34.2,227.7,32.7z"/>
	</g>
	<g>
		<g>
			<path class="st6" d="M19.7,21c-0.5,0.4-1,0.7-1.5,0.9c-0.5,0.3-1.1,0.5-1.8,0.6c-0.6,0.1-1.4,0.2-2.2,0.2c-1.2,0-2.3-0.2-3.4-0.7
				c-1-0.4-1.9-1-2.7-1.8c-0.8-0.8-1.3-1.7-1.8-2.7c-0.4-1-0.6-2.1-0.6-3.3v0c0-1.2,0.2-2.3,0.6-3.3c0.4-1,1-1.9,1.8-2.7
				C9,7.4,9.9,6.8,10.9,6.3c1.1-0.4,2.2-0.7,3.5-0.7c0.8,0,1.5,0.1,2.1,0.2c0.6,0.1,1.2,0.3,1.7,0.5c0.5,0.2,1,0.5,1.4,0.8
				c0.4,0.3,0.8,0.7,1.2,1l-2.3,2.7c-0.6-0.6-1.3-1-2-1.4C16,9.2,15.2,9,14.4,9c-0.7,0-1.3,0.1-1.9,0.4c-0.6,0.3-1.1,0.6-1.5,1.1
				c-0.4,0.5-0.8,1-1,1.6c-0.2,0.6-0.4,1.3-0.4,2v0c0,0.7,0.1,1.4,0.4,2c0.2,0.6,0.6,1.2,1,1.7c0.4,0.5,0.9,0.8,1.5,1.1
				c0.6,0.3,1.2,0.4,1.9,0.4c0.9,0,1.7-0.2,2.4-0.5c0.7-0.3,1.3-0.8,1.9-1.4l2.3,2.3C20.6,20.2,20.2,20.6,19.7,21z"/>
			<path class="st6" d="M31.6,22.4v-7c0-0.8-0.2-1.5-0.6-1.9c-0.4-0.4-0.9-0.6-1.6-0.6s-1.2,0.2-1.6,0.6c-0.4,0.4-0.6,1.1-0.6,1.9v7
				h-3.6V5.2h3.6v6.4c0.2-0.3,0.4-0.5,0.7-0.8c0.2-0.2,0.5-0.5,0.8-0.7c0.3-0.2,0.6-0.3,1-0.5c0.4-0.1,0.8-0.2,1.2-0.2
				c1.4,0,2.4,0.4,3.2,1.2c0.7,0.8,1.1,2,1.1,3.4v8.2H31.6z"/>
			<path class="st6" d="M46.2,22.4v-1.8c-0.2,0.3-0.4,0.5-0.7,0.8c-0.2,0.2-0.5,0.5-0.8,0.7c-0.3,0.2-0.6,0.3-1,0.5
				c-0.4,0.1-0.8,0.2-1.2,0.2c-1.4,0-2.4-0.4-3.2-1.2c-0.7-0.8-1.1-2-1.1-3.4V9.8h3.6v7c0,0.8,0.2,1.5,0.6,1.9s0.9,0.6,1.6,0.6
				c0.7,0,1.2-0.2,1.6-0.6s0.6-1.1,0.6-1.9v-7h3.6v12.6H46.2z"/>
			<path class="st6" d="M65.7,18.9c-0.3,0.8-0.7,1.5-1.3,2.1c-0.5,0.6-1.1,1-1.8,1.3c-0.7,0.3-1.4,0.4-2.2,0.4c-1,0-1.7-0.2-2.4-0.6
				c-0.6-0.4-1.1-0.8-1.6-1.3v1.6h-3.6V5.2h3.6v6.4c0.4-0.6,1-1.1,1.6-1.5c0.6-0.4,1.4-0.6,2.3-0.6c0.7,0,1.5,0.1,2.1,0.4
				c0.7,0.3,1.3,0.7,1.8,1.3c0.5,0.6,1,1.2,1.3,2.1c0.3,0.8,0.5,1.7,0.5,2.8v0C66.2,17.2,66.1,18.1,65.7,18.9z M62.6,16.1
				c0-0.5-0.1-1-0.2-1.4s-0.4-0.8-0.7-1.1c-0.3-0.3-0.6-0.5-1-0.7c-0.4-0.2-0.8-0.2-1.2-0.2c-0.4,0-0.8,0.1-1.2,0.2
				c-0.4,0.2-0.7,0.4-1,0.7c-0.3,0.3-0.5,0.7-0.7,1.1c-0.2,0.4-0.2,0.9-0.2,1.4v0c0,0.5,0.1,1,0.2,1.4c0.2,0.4,0.4,0.8,0.7,1.1
				c0.3,0.3,0.6,0.5,1,0.7c0.4,0.2,0.8,0.2,1.2,0.2c0.4,0,0.8-0.1,1.2-0.2c0.4-0.2,0.7-0.4,1-0.7c0.3-0.3,0.5-0.7,0.7-1.1
				C62.6,17.2,62.6,16.7,62.6,16.1L62.6,16.1z"/>
			<path class="st6" d="M76.8,22.4v-1.8c-0.2,0.3-0.4,0.5-0.7,0.8c-0.2,0.2-0.5,0.5-0.8,0.7c-0.3,0.2-0.6,0.3-1,0.5
				c-0.4,0.1-0.8,0.2-1.2,0.2c-1.4,0-2.4-0.4-3.2-1.2c-0.7-0.8-1.1-2-1.1-3.4V9.8h3.6v7c0,0.8,0.2,1.5,0.6,1.9
				c0.4,0.4,0.9,0.6,1.6,0.6c0.7,0,1.2-0.2,1.6-0.6c0.4-0.4,0.6-1.1,0.6-1.9v-7h3.6v12.6H76.8z"/>
			<path class="st6" d="M89.4,22.5c-0.5,0.1-1,0.2-1.6,0.2c-0.6,0-1-0.1-1.5-0.2c-0.4-0.1-0.8-0.3-1.2-0.6c-0.3-0.3-0.6-0.7-0.8-1.2
				c-0.2-0.5-0.3-1.1-0.3-1.8v-6h-1.5V9.8h1.5V6.6h3.6v3.2h3v3.1h-3v5.4c0,0.8,0.4,1.2,1.2,1.2c0.6,0,1.2-0.1,1.8-0.4v2.9
				C90.3,22.1,89.9,22.3,89.4,22.5z"/>
			<path class="st6" d="M112.2,16.9c0,0.1,0,0.3,0,0.4h-8.8c0.2,0.8,0.5,1.4,1.1,1.9c0.5,0.4,1.2,0.6,2,0.6c0.6,0,1.1-0.1,1.6-0.3
				c0.5-0.2,1-0.5,1.5-1l2.1,1.8c-0.6,0.7-1.3,1.3-2.2,1.7c-0.8,0.4-1.8,0.6-3,0.6c-0.9,0-1.8-0.2-2.6-0.5c-0.8-0.3-1.5-0.8-2.1-1.3
				c-0.6-0.6-1-1.3-1.4-2.1c-0.3-0.8-0.5-1.7-0.5-2.7v0c0-0.9,0.2-1.7,0.5-2.5c0.3-0.8,0.7-1.5,1.3-2.1c0.5-0.6,1.2-1.1,2-1.4
				c0.8-0.3,1.6-0.5,2.5-0.5c1.1,0,2,0.2,2.7,0.6c0.8,0.4,1.4,0.9,1.9,1.5c0.5,0.6,0.9,1.4,1.1,2.2c0.2,0.8,0.4,1.7,0.4,2.6v0
				C112.2,16.7,112.2,16.8,112.2,16.9z M107.9,13.2c-0.5-0.5-1.1-0.7-1.8-0.7s-1.4,0.2-1.8,0.7c-0.5,0.5-0.8,1.1-0.9,2h5.4
				C108.6,14.3,108.3,13.7,107.9,13.2z"/>
			<path class="st6" d="M122.9,22.4v-7c0-0.8-0.2-1.5-0.6-1.9c-0.4-0.4-0.9-0.6-1.6-0.6s-1.2,0.2-1.6,0.6c-0.4,0.4-0.6,1.1-0.6,1.9
				v7h-3.6V9.8h3.6v1.8c0.2-0.3,0.4-0.5,0.7-0.8c0.2-0.2,0.5-0.5,0.8-0.7c0.3-0.2,0.6-0.3,1-0.5c0.4-0.1,0.8-0.2,1.2-0.2
				c1.4,0,2.4,0.4,3.2,1.2c0.7,0.8,1.1,2,1.1,3.4v8.2H122.9z"/>
		</g>
		<g>
			<path class="st6" d="M47.4,43.7c-0.5-0.5-1-0.9-1.6-1.1c-0.6-0.3-1.3-0.4-2-0.4c-0.7,0-1.4,0.1-2,0.4c-0.6,0.3-1.1,0.6-1.6,1.1
				c-0.4,0.5-0.8,1-1,1.7c-0.2,0.6-0.4,1.3-0.4,2v0c0,0.7,0.1,1.4,0.4,2c0.2,0.6,0.6,1.2,1.1,1.7c0.5,0.5,1,0.9,1.6,1.1
				c0.6,0.3,1.3,0.4,2,0.4c0.7,0,1.4-0.1,2-0.4c0.6-0.3,1.2-0.6,1.6-1.1c0.4-0.5,0.8-1,1-1.7c0.2-0.6,0.4-1.3,0.4-2v0
				c0-0.7-0.1-1.4-0.4-2C48.2,44.7,47.8,44.2,47.4,43.7z"/>
			<path class="st6" d="M172.9,43.7c-0.5-0.5-1-0.9-1.6-1.1c-0.6-0.3-1.3-0.4-2-0.4c-0.7,0-1.4,0.1-2,0.4c-0.6,0.3-1.1,0.6-1.6,1.1
				c-0.4,0.5-0.8,1-1,1.7c-0.2,0.6-0.4,1.3-0.4,2v0c0,0.7,0.1,1.4,0.4,2c0.2,0.6,0.6,1.2,1.1,1.7c0.5,0.5,1,0.9,1.6,1.1
				c0.6,0.3,1.3,0.4,2,0.4c0.7,0,1.4-0.1,2-0.4c0.6-0.3,1.2-0.6,1.6-1.1c0.4-0.5,0.8-1,1-1.7c0.2-0.6,0.4-1.3,0.4-2v0
				c0-0.7-0.1-1.4-0.4-2C173.7,44.7,173.4,44.2,172.9,43.7z"/>
			<path class="st6" d="M5,32.4v29.4h180V32.4H5z M31.6,55.8h-3.6V44.9L23.2,52h-0.1l-4.7-7.1v10.9h-3.6V39h4l4.4,7.1l4.4-7.1h4
				V55.8z M52.6,47.4c0,1.2-0.2,2.3-0.7,3.4c-0.4,1-1.1,2-1.9,2.8c-0.8,0.8-1.7,1.4-2.8,1.9c-1.1,0.5-2.3,0.7-3.6,0.7
				c-1.3,0-2.5-0.2-3.6-0.7c-1.1-0.5-2-1.1-2.8-1.8c-0.8-0.8-1.4-1.7-1.8-2.7c-0.4-1-0.7-2.2-0.7-3.4v0c0-1.2,0.2-2.3,0.7-3.4
				c0.4-1,1.1-2,1.9-2.8c0.8-0.8,1.7-1.4,2.8-1.9c1.1-0.5,2.3-0.7,3.6-0.7c1.3,0,2.5,0.2,3.6,0.7c1.1,0.5,2,1.1,2.8,1.8
				c0.8,0.8,1.4,1.7,1.8,2.7C52.4,45.1,52.6,46.2,52.6,47.4L52.6,47.4z M64.5,55.9h-3.3L54.5,39h4.1l4.4,11.8L67.3,39h4L64.5,55.9z
				 M77.7,55.8H74V39h3.7V55.8z M98.6,55.8H95V44.9L90.3,52h-0.1l-4.7-7.1v10.9h-3.6V39h4l4.4,7.1l4.4-7.1h4V55.8z M106.5,55.8h-3.7
				V39h3.7V55.8z M123.4,55.8h-12.7V39h12.6v3.3h-9v3.4h7.9V49h-7.9v3.5h9.1V55.8z M141.6,55.8h-3.1l-8.1-10.6v10.6h-3.6V39h3.4
				l7.8,10.3V39h3.6V55.8z M158.3,42.4h-5.1v13.3h-3.7V42.4h-5.1V39h13.9V42.4z M178.2,47.4c0,1.2-0.2,2.3-0.7,3.4
				c-0.4,1-1.1,2-1.9,2.8c-0.8,0.8-1.7,1.4-2.8,1.9c-1.1,0.5-2.3,0.7-3.6,0.7c-1.3,0-2.5-0.2-3.6-0.7c-1.1-0.5-2-1.1-2.8-1.8
				c-0.8-0.8-1.4-1.7-1.8-2.7c-0.4-1-0.7-2.2-0.7-3.4v0c0-1.2,0.2-2.3,0.7-3.4c0.4-1,1.1-2,1.9-2.8c0.8-0.8,1.7-1.4,2.8-1.9
				c1.1-0.5,2.3-0.7,3.6-0.7c1.3,0,2.5,0.2,3.6,0.7c1.1,0.5,2,1.1,2.8,1.8c0.8,0.8,1.4,1.7,1.8,2.7C178,45.1,178.2,46.2,178.2,47.4
				L178.2,47.4z"/>
		</g>
	</g>
</g>
</svg>
